HIERARCHY
ROOT hip
{
  OFFSET 20.0837 83.4319 47.4351
  CHANNELS 6 Xposition Yposition Zposition Zrotation Xrotation Yrotation
  JOINT abdomen
  {
    OFFSET 0 20.6881 -0.73152
    CHANNELS 3 Zrotation Xrotation Yrotation
    JOINT chest
    {
      OFFSET 0 11.7043 -0.48768
      CHANNELS 3 Zrotation Xrotation Yrotation
      JOINT neck
      {
        OFFSET 0 22.1894 -2.19456
        CHANNELS 3 Zrotation Xrotation Yrotation
        JOINT head
        {
          OFFSET -0.24384 7.07133 1.2192
          CHANNELS 3 Zrotation Xrotation Yrotation
          JOINT leftEye
          {
            OFFSET 4.14528 8.04674 8.04672
            CHANNELS 3 Zrotation Xrotation Yrotation
            End Site
            {
              OFFSET 1 0 0
            }
          }
          JOINT rightEye
          {
            OFFSET -3.6576 8.04674 8.04672
            CHANNELS 3 Zrotation Xrotation Yrotation
            End Site
            {
              OFFSET 1 0 0
            }
          }
        }
      }
      JOINT rCollar
      {
        OFFSET -2.68224 19.2634 -4.8768
        CHANNELS 3 Zrotation Xrotation Yrotation
        JOINT rShldr
        {
          OFFSET -8.77824 -1.95073 1.46304
          CHANNELS 3 Zrotation Xrotation Yrotation
          JOINT rForeArm
          {
            OFFSET -28.1742 -1.7115 0.48768
            CHANNELS 3 Zrotation Xrotation Yrotation
            JOINT rHand
            {
              OFFSET -22.5879 0.773209 7.07136
              CHANNELS 3 Zrotation Xrotation Yrotation
              JOINT rThumb1
              {
                OFFSET -1.2192 -0.487915 3.41376
                CHANNELS 3 Zrotation Xrotation Yrotation
                JOINT rThumb2
                {
                  OFFSET -3.37035 -0.52449 3.41376
                  CHANNELS 3 Zrotation Xrotation Yrotation
                  End Site
                  {
                    OFFSET -1.78271 -1.18214 1.43049
                  }
                }
              }
              JOINT rIndex1
              {
                OFFSET -7.75947 0.938293 5.60832
                CHANNELS 3 Zrotation Xrotation Yrotation
                JOINT rIndex2
                {
                  OFFSET -2.54057 -0.884171 1.56538
                  CHANNELS 3 Zrotation Xrotation Yrotation
                  End Site
                  {
                    OFFSET -1.62519 -0.234802 1.16502
                  }
                }
              }
              JOINT rMid1
              {
                OFFSET -8.24714 1.18213 3.41376
                CHANNELS 3 Zrotation Xrotation Yrotation
                JOINT rMid2
                {
                  OFFSET -3.10165 -0.590103 1.0647
                  CHANNELS 3 Zrotation Xrotation Yrotation
                  End Site
                  {
                    OFFSET -2.48547 -0.328903 0.83742
                  }
                }
              }
              JOINT rRing1
              {
                OFFSET -8.82822 0.546677 1.51678
                CHANNELS 3 Zrotation Xrotation Yrotation
                JOINT rRing2
                {
                  OFFSET -2.60934 -0.819778 -0.0198488
                  CHANNELS 3 Zrotation Xrotation Yrotation
                  End Site
                  {
                    OFFSET -2.33842 -0.294052 0.168128
                  }
                }
              }
              JOINT rPinky1
              {
                OFFSET -8.27202 -0.0477905 -0.4584
                CHANNELS 3 Zrotation Xrotation Yrotation
                JOINT rPinky2
                {
                  OFFSET -1.82734 -0.647385 -0.700984
                  CHANNELS 3 Zrotation Xrotation Yrotation
                  End Site
                  {
                    OFFSET -1.69225 -0.51767 -0.607171
                  }
                }
              }
            }
          }
        }
      }
      JOINT lCollar
      {
        OFFSET 2.68224 19.2634 -4.8768
        CHANNELS 3 Zrotation Xrotation Yrotation
        JOINT lShldr
        {
          OFFSET 8.77824 -1.95073 1.46304
          CHANNELS 3 Zrotation Xrotation Yrotation
          JOINT lForeArm
          {
            OFFSET 28.1742 -1.7115 0.48768
            CHANNELS 3 Zrotation Xrotation Yrotation
            JOINT lHand
            {
              OFFSET 22.5879 0.773209 7.07136
              CHANNELS 3 Zrotation Xrotation Yrotation
              JOINT lThumb1
              {
                OFFSET 1.2192 -0.487915 3.41376
                CHANNELS 3 Zrotation Xrotation Yrotation
                JOINT lThumb2
                {
                  OFFSET 3.37035 -0.52449 3.41376
                  CHANNELS 3 Zrotation Xrotation Yrotation
                  End Site
                  {
                    OFFSET 1.78271 -1.18214 1.43049
                  }
                }
              }
              JOINT lIndex1
              {
                OFFSET 7.75947 0.938293 5.60832
                CHANNELS 3 Zrotation Xrotation Yrotation
                JOINT lIndex2
                {
                  OFFSET 2.54057 -0.884171 1.56538
                  CHANNELS 3 Zrotation Xrotation Yrotation
                  End Site
                  {
                    OFFSET 1.62519 -0.234802 1.16502
                  }
                }
              }
              JOINT lMid1
              {
                OFFSET 8.24714 1.18213 3.41376
                CHANNELS 3 Zrotation Xrotation Yrotation
                JOINT lMid2
                {
                  OFFSET 3.10165 -0.590103 1.0647
                  CHANNELS 3 Zrotation Xrotation Yrotation
                  End Site
                  {
                    OFFSET 2.48547 -0.328903 0.83742
                  }
                }
              }
              JOINT lRing1
              {
                OFFSET 8.82822 0.546677 1.51678
                CHANNELS 3 Zrotation Xrotation Yrotation
                JOINT lRing2
                {
                  OFFSET 2.60934 -0.819778 -0.0198488
                  CHANNELS 3 Zrotation Xrotation Yrotation
                  End Site
                  {
                    OFFSET 2.33842 -0.294052 0.168128
                  }
                }
              }
              JOINT lPinky1
              {
                OFFSET 8.27202 -0.0477905 -0.4584
                CHANNELS 3 Zrotation Xrotation Yrotation
                JOINT lPinky2
                {
                  OFFSET 1.82734 -0.647385 -0.700984
                  CHANNELS 3 Zrotation Xrotation Yrotation
                  End Site
                  {
                    OFFSET 1.69225 -0.51767 -0.607171
                  }
                }
              }
            }
          }
        }
      }
    }
  }
  JOINT rButtock
  {
    OFFSET -8.77824 4.35084 1.2192
    CHANNELS 3 Zrotation Xrotation Yrotation
    JOINT rThigh
    {
      OFFSET 0 -1.70687 -2.19456
      CHANNELS 3 Zrotation Xrotation Yrotation
      JOINT rShin
      {
        OFFSET 0 -36.8199 0.73152
        CHANNELS 3 Zrotation Xrotation Yrotation
        JOINT rFoot
        {
          OFFSET 0.73152 -45.1104 -5.12064
          CHANNELS 3 Zrotation Xrotation Yrotation
          End Site
          {
            OFFSET -1.1221 -3.69964 12.103
          }
        }
      }
    }
  }
  JOINT lButtock
  {
    OFFSET 8.77824 4.35084 1.2192
    CHANNELS 3 Zrotation Xrotation Yrotation
    JOINT lThigh
    {
      OFFSET 0 -1.70687 -2.19456
      CHANNELS 3 Zrotation Xrotation Yrotation
      JOINT lShin
      {
        OFFSET 0 -36.8199 0.73152
        CHANNELS 3 Zrotation Xrotation Yrotation
        JOINT lFoot
        {
          OFFSET -0.73152 -45.1104 -5.12064
          CHANNELS 3 Zrotation Xrotation Yrotation
          End Site
          {
            OFFSET 1.1221 -3.69964 12.103
          }
        }
      }
    }
  }
}
MOTION
Frames:	8
Frame Time:	0.00833333
97.4717 85.1388 127.916 -0.311917 -0.00136748 0.00530359 0.410576 -0.00336394 0.0117802 0.113455 -0.0053947 0.0196586 6.12676e-015 3.18055e-015 -2.04997e-016 1.83643e-014 2.22639e-014 -5.93248e-016 -0 0 0 -0 0 0 3.12966e-015 4.65902e-018 4.96962e-017 6.67779e-014 2.79541e-016 -7.95139e-016 1.10972e-012 -3.27796e-013 -6.67917e-014 1.26619e-011 3.35375e-013 -3.81667e-013 2.98705e-011 1.01513e-014 -9.63708e-013 5.15779e-011 1.90833e-014 -1.66423e-012 2.98722e-011 9.93923e-015 -9.70069e-013 7.73091 5.47488 0.417314 2.98702e-011 1.00386e-014 -9.60528e-013 2.90554 0.965183 0.102902 2.98726e-011 9.93923e-015 -9.62913e-013 10.2786 0.731801 0.0259123 2.98614e-011 1.35174e-014 -9.60528e-013 2.22167 -0.733487 -0.20892 3.03287e-015 4.65902e-018 -2.48481e-016 6.2866e-014 1.67725e-016 -2.98177e-015 1.10435e-012 3.29784e-013 -3.49861e-014 1.26584e-011 -3.31001e-013 -4.07111e-013 2.98582e-011 -5.78209e-015 -9.70069e-013 5.15663e-011 -6.36111e-015 -1.66263e-012 2.98559e-011 -8.74653e-015 -9.54166e-013 -7.73091 5.47488 -0.417314 2.98592e-011 -6.4605e-015 -9.66889e-013 -2.90554 0.965183 -0.102902 2.98517e-011 -5.76476e-015 -9.61323e-013 -10.2786 0.731801 -0.0259123 2.98688e-011 -3.97569e-016 -9.63708e-013 -2.22167 -0.733487 0.20892 -2.03217e-016 0 -3.88251e-019 0.770891 -4.17179 -0.0656914 -0.00265691 2.00547 -0.0182886 -0.462127 2.16691 0.0961408 2.03217e-016 0 3.88251e-019 -0.142948 -2.55997 0.0260622 0.00716113 -0.91406 0.0621536 0.453477 3.47456 -0.121182 
97.5408 83.6413 123.513 -5.18982 4.74287 48.8359 -1.3637 -8.63474 -0.989875 1.04034 3.8891 -0.38969 -0.0600456 2.87364 -0.40704 1.36767 -5.20657 -0.676981 -0 0 0 -0 0 0 3.43273e-014 8.79903e-014 4.04973e-014 22.8109 2.42905 -1.6577 -5.04254 -2.48284 7.65681 0.00165495 -0.903645 -0.126934 -5.91539e-010 1.02144e-009 -4.84591e-010 -1.02277e-009 1.76636e-009 -8.38499e-010 -5.91538e-010 1.02144e-009 -4.84597e-010 7.73091 5.47488 0.417314 -5.9154e-010 1.02144e-009 -4.84589e-010 2.90554 0.965183 0.102902 -5.91536e-010 1.02144e-009 -4.8459e-010 10.2786 0.731801 0.0259123 -5.91547e-010 1.02144e-009 -4.84587e-010 2.22167 -0.733487 -0.20892 3.42692e-014 8.79906e-014 4.01743e-014 -21.031 5.43672 -0.435266 3.21025 -1.3028 -5.17076 -0.00207054 1.01367 -0.142391 -7.31058e-010 5.14685e-011 7.66479e-010 -1.26003e-009 9.0715e-011 1.3279e-009 -7.31061e-010 5.14667e-011 7.6649e-010 -7.73091 5.47488 -0.417314 -7.31057e-010 5.14679e-011 7.6648e-010 -2.90554 0.965183 -0.102902 -7.31064e-010 5.14685e-011 7.66487e-010 -10.2786 0.731801 -0.0259123 -7.31051e-010 5.14723e-011 7.66483e-010 -2.22167 -0.733487 0.20892 -2.03217e-016 0 -3.88251e-019 1.14328 -11.2272 1.50411 0.00457452 4.17515 0.0436889 -0.622677 -2.68435 -0.953912 2.03217e-016 0 3.88251e-019 -0.751226 -9.05039 -2.43999 0.0111287 1.37883 0.0362025 0.496067 1.69957 -1.28049 
97.5401 83.6392 123.515 -13.7981 -2.53816 99.6719 -3.58301 -17.7496 -2.12733 2.08078 8.00526 -0.828644 -0.0764005 5.91095 -0.842355 2.67499 -10.7068 -1.41549 -0 0 0 -0 0 0 6.88289e-014 1.88251e-013 8.53314e-014 47.0802 4.9948 -3.41883 -9.66278 -4.96325 15.8034 -0.000959742 -1.86432 -0.261987 -1.27942e-009 2.15434e-009 -1.03178e-009 -2.21202e-009 3.72542e-009 -1.78531e-009 -1.27942e-009 2.15434e-009 -1.03179e-009 7.73091 5.47488 0.417314 -1.27942e-009 2.15434e-009 -1.03178e-009 2.90554 0.965183 0.102902 -1.27941e-009 2.15434e-009 -1.03178e-009 10.2786 0.731801 0.0259123 -1.27942e-009 2.15434e-009 -1.03178e-009 2.22167 -0.733487 -0.20892 6.88123e-014 1.88251e-013 8.49835e-014 -43.1705 11.1985 -0.915891 6.35782 -2.64964 -10.6592 0.00122204 2.07444 -0.291551 -1.5799e-009 1.1737e-010 1.62775e-009 -2.72314e-009 2.06595e-010 2.81996e-009 -1.5799e-009 1.1737e-010 1.62775e-009 -7.73091 5.47488 -0.417314 -1.5799e-009 1.1737e-010 1.62775e-009 -2.90554 0.965183 -0.102902 -1.5799e-009 1.17371e-010 1.62776e-009 -10.2786 0.731801 -0.0259123 -1.5799e-009 1.17373e-010 1.62775e-009 -2.22167 -0.733487 0.20892 -2.03217e-016 0 -3.88251e-019 1.97811 -18.6657 3.27763 0.00715824 6.46907 0.109659 -0.987337 -7.80826 -2.08225 2.03217e-016 0 3.88251e-019 -2.02443 -15.8675 -5.18324 0.0174505 3.80371 0.00877386 0.462502 -0.178539 -2.51173 
97.5511 83.639 123.499 -11.2495 -17.6958 143.87 -5.90259 -25.8642 -3.28932 3.064 11.6757 -1.23117 -0.056466 8.61918 -1.23352 3.72195 -15.6108 -2.10006 -0 0 0 -0 0 0 9.67227e-014 2.63962e-013 1.21393e-013 68.8566 7.26265 -5.00893 -13.184 -6.9176 23.1267 -0.00705824 -2.71088 -0.381182 -1.83436e-009 3.06429e-009 -1.45185e-009 -3.17148e-009 5.29905e-009 -2.51217e-009 -1.83436e-009 3.06429e-009 -1.45185e-009 7.73091 5.47488 0.417314 -1.83436e-009 3.06429e-009 -1.45185e-009 2.90554 0.965183 0.102902 -1.83435e-009 3.06429e-009 -1.45185e-009 10.2786 0.731801 0.0259123 -1.83436e-009 3.06429e-009 -1.45184e-009 2.22167 -0.733487 -0.20892 9.67419e-014 2.63962e-013 1.2102e-013 -62.8363 16.3063 -1.35442 8.9336 -3.78128 -15.5429 0.00892139 3.04093 -0.42771 -2.25289e-009 1.54417e-010 2.30138e-009 -3.88321e-009 2.72158e-010 3.98704e-009 -2.2529e-009 1.54417e-010 2.30138e-009 -7.73091 5.47488 -0.417314 -2.25289e-009 1.54417e-010 2.30137e-009 -2.90554 0.965183 -0.102902 -2.25289e-009 1.54417e-010 2.30138e-009 -10.2786 0.731801 -0.0259123 -2.25289e-009 1.54418e-010 2.30138e-009 -2.22167 -0.733487 0.20892 -2.03217e-016 0 -3.88251e-019 3.15533 -25.2635 5.04012 0.00481735 8.51447 0.169138 -1.48674 -12.3701 -3.12332 2.03217e-016 0 3.88251e-019 -3.75266 -21.8684 -7.84882 0.0253021 5.96463 -0.0158007 0.365903 -1.84551 -3.59973 
97.5409 83.6381 123.494 0.498845 -26.2548 177.51 -7.74664 -31.5096 -4.23347 3.78321 14.2343 -1.52091 -0.0342931 10.5065 -1.50239 4.39461 -19.0333 -2.58329 -0 0 0 -0 0 0 1.08097e-013 2.78298e-013 1.35521e-013 84.0998 8.80911 -6.13708 -15.3159 -8.06662 28.2414 -0.0131493 -3.27221 -0.460356 -2.05696e-009 3.41689e-009 -1.55408e-009 -3.55648e-009 5.90915e-009 -2.68918e-009 -2.05696e-009 3.41689e-009 -1.55408e-009 7.73091 5.47488 0.417314 -2.05696e-009 3.41689e-009 -1.55408e-009 2.90554 0.965183 0.102902 -2.05696e-009 3.41689e-009 -1.55408e-009 10.2786 0.731801 0.0259123 -2.05696e-009 3.41689e-009 -1.55407e-009 2.22167 -0.733487 -0.20892 1.08138e-013 2.78299e-013 1.35124e-013 -76.5102 19.783 -1.63898 10.5753 -4.49857 -18.8848 0.0174809 3.77177 -0.530896 -2.48626e-009 1.19325e-010 2.5059e-009 -4.28568e-009 2.1193e-010 4.34166e-009 -2.48626e-009 1.19326e-010 2.5059e-009 -7.73091 5.47488 -0.417314 -2.48625e-009 1.19325e-010 2.5059e-009 -2.90554 0.965183 -0.102902 -2.48626e-009 1.19325e-010 2.50591e-009 -10.2786 0.731801 -0.0259123 -2.48626e-009 1.19325e-010 2.5059e-009 -2.22167 -0.733487 0.20892 -2.03217e-016 0 -3.88251e-019 4.25843 -29.8286 6.41742 0.000249749 9.93855 0.211066 -1.93542 -15.5437 -3.87483 2.03217e-016 0 3.88251e-019 -5.32066 -25.9807 -9.88382 0.0325689 7.46562 -0.0330456 0.26603 -2.99042 -4.32577 
97.5437 83.6378 123.487 7.16687 -27.6304 -168.393 -8.52304 -33.7233 -4.64218 4.0796 15.2409 -1.63755 -0.0535187 11.2407 -1.58593 4.6769 -20.3882 -2.72315 -0 0 0 -0 0 0 9.4086e-014 1.90646e-013 1.1803e-013 90.0563 9.36973 -6.591 -16.0544 -8.43437 30.1783 -0.0154523 -3.43726 -0.483669 -1.78718e-009 2.91568e-009 -1.11234e-009 -3.0905e-009 5.04344e-009 -1.9251e-009 -1.78718e-009 2.91568e-009 -1.11235e-009 7.73091 5.47488 0.417314 -1.78719e-009 2.91568e-009 -1.11234e-009 2.90554 0.965183 0.102902 -1.78718e-009 2.91568e-009 -1.11234e-009 10.2786 0.731801 0.0259123 -1.78719e-009 2.91568e-009 -1.11233e-009 2.22167 -0.733487 -0.20892 9.41297e-014 1.90647e-013 1.17599e-013 -81.8884 20.9739 -1.67322 11.1176 -4.71905 -20.0461 0.0227361 4.17248 -0.587553 -2.04016e-009 -8.79376e-011 1.92715e-009 -3.51753e-009 -1.47796e-010 3.33997e-009 -2.04017e-009 -8.79347e-011 1.92714e-009 -7.73091 5.47488 -0.417314 -2.04016e-009 -8.7937e-011 1.92714e-009 -2.90554 0.965183 -0.102902 -2.04017e-009 -8.79365e-011 1.92715e-009 -10.2786 0.731801 -0.0259123 -2.04016e-009 -8.79373e-011 1.92714e-009 -2.22167 -0.733487 0.20892 -2.03217e-016 0 -3.88251e-019 4.76368 -31.5959 6.98414 -0.0030205 10.4903 0.227479 -2.12836 -16.7863 -4.1554 2.03217e-016 0 3.88251e-019 -6.00954 -27.556 -10.7192 0.0372764 8.03962 -0.0398111 0.232935 -3.39993 -4.5167 
97.5382 83.6418 123.488 6.37202 -27.5443 -169.969 -8.42263 -33.4941 -4.59071 4.06026 15.1392 -1.62583 -0.111127 11.152 -1.535 4.7112 -20.2678 -2.60415 -0 0 0 -0 0 0 6.20497e-014 3.09099e-014 7.7995e-014 89.3484 9.23057 -6.55673 -15.9116 -8.33998 29.8273 -0.0143154 -3.31912 -0.467 -1.167e-009 1.80811e-009 -2.86763e-010 -2.0189e-009 3.12962e-009 -4.96973e-010 -1.167e-009 1.80811e-009 -2.86777e-010 7.73091 5.47488 0.417314 -1.167e-009 1.80811e-009 -2.86761e-010 2.90554 0.965183 0.102902 -1.167e-009 1.80811e-009 -2.86764e-010 10.2786 0.731801 0.0259123 -1.167e-009 1.80811e-009 -2.86756e-010 2.22167 -0.733487 -0.20892 6.2083e-014 3.09116e-014 7.7526e-014 -81.3578 20.5329 -1.52031 10.9175 -4.6067 -19.6455 0.0244006 4.33739 -0.610861 -1.11179e-009 -4.14789e-010 7.94929e-010 -1.91847e-009 -7.15574e-010 1.37991e-009 -1.11179e-009 -4.14785e-010 7.94929e-010 -7.73091 5.47488 -0.417314 -1.11179e-009 -4.14788e-010 7.94922e-010 -2.90554 0.965183 -0.102902 -1.1118e-009 -4.14787e-010 7.94931e-010 -10.2786 0.731801 -0.0259123 -1.11179e-009 -4.14788e-010 7.94924e-010 -2.22167 -0.733487 0.20892 -2.03217e-016 0 -3.88251e-019 4.71109 -31.3812 6.88925 -0.00428835 10.4191 0.225429 -2.09484 -16.6532 -4.08297 2.03217e-016 0 3.88251e-019 -5.90262 -27.3535 -10.6024 0.0396848 7.95164 -0.0390241 0.261493 -3.28579 -4.32502 
97.5502 83.6435 123.482 2.58756 -26.8602 -177.824 -7.97029 -32.2881 -4.35344 3.91003 14.5893 -1.5619 -0.176258 10.7417 -1.43951 4.6412 -19.5566 -2.40249 -0 0 0 -0 0 0 2.64173e-014 -1.31957e-013 3.04082e-014 85.9836 8.79916 -6.33318 -15.414 -8.0589 28.5669 -0.0119372 -3.08288 -0.433676 -4.50016e-010 5.75603e-010 5.33936e-010 -7.79848e-010 9.9952e-010 9.22716e-010 -4.50015e-010 5.75606e-010 5.33918e-010 7.73091 5.47488 0.417314 -4.50019e-010 5.75604e-010 5.33939e-010 2.90554 0.965183 0.102902 -4.50013e-010 5.75604e-010 5.33933e-010 10.2786 0.731801 0.0259123 -4.5002e-010 5.75602e-010 5.33942e-010 2.22167 -0.733487 -0.20892 2.64325e-014 -1.31955e-013 2.99117e-014 -78.4536 19.4467 -1.29439 10.4179 -4.3606 -18.6261 0.0243968 4.40846 -0.620872 -9.28722e-011 -6.75595e-010 -3.56217e-010 -1.62982e-010 -1.16915e-009 -6.13307e-010 -9.28764e-011 -6.7559e-010 -3.56213e-010 -7.73091 5.47488 -0.417314 -9.28703e-011 -6.75593e-010 -3.56223e-010 -2.90554 0.965183 -0.102902 -9.28794e-011 -6.75592e-010 -3.56216e-010 -10.2786 0.731801 -0.0259123 -9.2875e-011 -6.75593e-010 -3.56222e-010 -2.22167 -0.733487 0.20892 -2.03217e-016 0 -3.88251e-019 4.44314 -30.3796 6.53981 -0.0045472 10.1028 0.216135 -1.97638 -15.9699 -3.88492 2.03217e-016 0 3.88251e-019 -5.48127 -26.4482 -10.108 0.0408065 7.60382 -0.0352317 0.307195 -2.97669 -4.01798 
